<!DOCTYPE svg PUBLIC "-//W3C//DTD SVG 1.1//EN" "https://www.w3.org/Graphics/SVG/1.1/DTD/svg11.dtd"><svg xmlns="http://www.w3.org/2000/svg" class="sc-bdOgaJ kKdhCQ graph" data-testid="graph" role="img" aria-labelledby="polymath-graph-title" width="1034" height="1488"><title id="polymath-graph-title">Gráfico de máquinas de estado do Workflow Studio</title><g transform="translate(12,12)" class="new-look-graph"><g class="nodes"><g class="node-container" transform="translate(579,22)"><g><circle class="sc-bBeLUv jsdhTr shape" r="22"/><text class="sc-fvtFIe iKjDaH label"><tspan xml:space="preserve" text-anchor="middle" alignment-baseline="central">Start</tspan></text></g></g><g class="node-container" transform="translate(579,103.5)"><g class="sc-esYiGF evlsMr node state Task" data-testid="graph-CheckBucketContents" data-state-id="CheckBucketContents" data-state-type="Task"><g class="new-look-state-node "><rect x="-120" y="-24.5" width="240" height="49" rx="3" ry="3"/><g class="handle" transform="translate(-120,-24.5)"><path d="M5,16 L5,34 M8,16 L8,34"/></g><g class="icon" transform="translate(-104,-24)"><rect fill="var(--color-background-container-header-etndi4, #fafafa)" x="0.0361026108" y="0.0181291967" width="48" height="48"/><line x1="47.5" y1="0.49122807" x2="47.5" y2="47.5" stroke="var(--color-board-placeholder-active-qurjro, #d5dbdb)" stroke-linecap="square"/><line x1="0.5" y1="0.49122807" x2="0.5" y2="47.5" stroke="var(--color-board-placeholder-active-qurjro, #d5dbdb)" stroke-linecap="square"/><use href="#icon-service-s3" aria-hidden="true"><title>S3</title></use></g><g class="text-lines" transform="translate(-48,-24.5)"><text transform="translate(0,17)" class="line1"><tspan xml:space="preserve" text-anchor="start">S3: ListObjectsV2</tspan></text><text transform="translate(0,35.5)" class="line2 label"><tspan xml:space="preserve" text-anchor="start">CheckBucketContents</tspan></text></g></g></g></g><g class="node-container" transform="translate(579,187.5)"><g class="sc-esYiGF evlsMr node state Choice" data-testid="graph-ValidaArquivo" data-state-id="ValidaArquivo" data-state-type="Choice"><g class="new-look-state-node "><rect x="-120" y="-24.5" width="240" height="49" rx="3" ry="3"/><g class="handle" transform="translate(-120,-24.5)"><path d="M5,16 L5,34 M8,16 L8,34"/></g><g class="icon" transform="translate(-104,-24)"><rect fill="var(--color-background-container-header-etndi4, #fafafa)" x="0.0361026108" y="0.0181291967" width="48" height="48"/><line x1="47.5" y1="0.49122807" x2="47.5" y2="47.5" stroke="var(--color-board-placeholder-active-qurjro, #d5dbdb)" stroke-linecap="square"/><line x1="0.5" y1="0.49122807" x2="0.5" y2="47.5" stroke="var(--color-board-placeholder-active-qurjro, #d5dbdb)" stroke-linecap="square"/><use href="#icon-flow-choice"/></g><g class="text-lines" transform="translate(-48,-24.5)"><text transform="translate(0,17)" class="line1"><tspan xml:space="preserve" text-anchor="start">Choice state</tspan></text><text transform="translate(0,35.5)" class="line2 label"><tspan xml:space="preserve" text-anchor="start">ValidaArquivo</tspan></text></g></g></g></g><g class="node-container" transform="translate(316.5,1156.5)"><g class="sc-esYiGF evlsMr node state container Map" data-state-id="ProcessNOAAData" data-state-type="Map"><g class="new-look-state-node "><g class="bounding-box" transform="translate(0,5)"><g class="shape new-look-state-node-sub"><rect rx="3" ry="3" x="-316.5" y="-144.5" width="633" height="284" class="sc-jMakVo kjRSyo"/><rect x="-291.5" y="-100.5" width="583" height="26" class="sc-jMakVo sc-iMTnTL kjRSyo dDqUGr"/><svg x="-276.5" y="-104" width="25" height="40" viewBox="0 0 40 40" fill="none" xmlns="http://www.w3.org/2000/svg"><g id="s3-bucket" fill="#8e8e8e"><path fill="#8e8e8e" d="M20.4216667,13.3044444 L20.5516667,12.295 C21.7588889,12.9916667 22.1344444,13.4005556 22.2427778,13.5688889 C22.0627778,13.6027778 21.5733333,13.6161111 20.4216667,13.3044444 L20.4216667,13.3044444 Z M10.8333333,6.11111111 C5.06944444,6.11111111 1.32333333,4.71555556 1.11111111,3.72 L1.11111111,3.61722222 C1.305,2.99555556 4.52222222,1.11111111 10.8333333,1.11111111 C17.1333333,1.11111111 20.3511111,2.98944444 20.5555556,3.61388889 L20.5555556,3.67555556 C20.4022222,4.69222222 16.645,6.11111111 10.8333333,6.11111111 L10.8333333,6.11111111 Z M19.3433333,12.9788889 C16.6961111,12.1094444 13.2844444,10.5438889 11.9966667,9.93777778 C11.9638889,9.32555556 11.46,8.83666667 10.84,8.83666667 C10.1988889,8.83666667 9.67666667,9.35833333 9.67666667,10 C9.67666667,10.6411111 10.1988889,11.1633333 10.84,11.1633333 C11.0938889,11.1633333 11.3272222,11.0788889 11.5183333,10.9405556 C12.8511111,11.5677778 16.455,13.2211111 19.1988889,14.1 L18.2427778,21.5133333 C18.1016667,22.4177778 15.5105556,23.3333333 10.8316667,23.3333333 C6.15111111,23.3333333 3.55833333,22.4177778 3.41944444,21.5283333 L1.35277778,5.45222222 C3.30277778,6.61944444 7.08277778,7.22222222 10.8333333,7.22222222 C14.5833333,7.22222222 18.3633333,6.61944444 20.3138889,5.45277778 L19.3433333,12.9788889 Z M21.6666667,3.61111111 C21.6666667,1.90611111 17.0338889,1.77635684e-15 10.8333333,1.77635684e-15 C4.63277778,1.77635684e-15 3.55271368e-15,1.90611111 3.55271368e-15,3.61111111 L3.55271368e-15,3.91277778 L2.31888889,21.685 C2.70833333,24.1755556 8.40166667,24.4444444 10.8316667,24.4444444 C13.2605556,24.4444444 18.9516667,24.1755556 19.3433333,21.6705556 L20.2783333,14.415 C20.9877778,14.5994444 21.5622222,14.6977778 22.0088889,14.6972222 C22.5588889,14.6972222 22.9294444,14.5572222 23.165,14.2761111 C23.3594444,14.045 23.4361111,13.7533333 23.3805556,13.4561111 C23.2538889,12.7777778 22.4461111,12.0622222 20.7611111,11.1355556 L20.7055556,11.105 L21.6666667,3.91333333 L21.6666667,3.61111111 Z" id="Amazon-Simple-Storage-Service-Icon_48_Squid"/></g><style data-styled="true" data-styled-version="5.3.11">.evlsMr{cursor:pointer;}/*!sc*/
data-styled.g49[id="sc-esYiGF"]{content:"evlsMr,"}/*!sc*/
.dMcVeZ{stroke:#555;background-color:#555;stroke-width:1px;}/*!sc*/
data-styled.g50[id="sc-fXSgeo"]{content:"dMcVeZ,"}/*!sc*/
.kqgysD{stroke-width:0;stroke:none;fill:#f2f3f3;}/*!sc*/
data-styled.g51[id="sc-JrDLc"]{content:"kqgysD,"}/*!sc*/
.jIeroT{font-size:10px;line-height:12.5;stroke:none;}/*!sc*/
data-styled.g52[id="sc-fjvvzt"]{content:"jIeroT,"}/*!sc*/
.bhtxUI{fill:var(--color-text-form-secondary-btuye6,#687078);}/*!sc*/
data-styled.g78[id="sc-iMWBiJ"]{content:"bhtxUI,"}/*!sc*/
.iKjDaH{font-weight:400;font-size:12px;line-height:16px;font-family:Amazon Ember,Arial,Roboto,Arial,sans-serif;text-shadow:none;fill:var(--color-text-button-primary-default-qh066v,#16191f);}/*!sc*/
data-styled.g79[id="sc-fvtFIe"]{content:"iKjDaH,"}/*!sc*/
.jsdhTr{fill:#fff9cc;stroke:var(--color-text-form-secondary-btuye6,#687078);stroke-width:0.6px;}/*!sc*/
data-styled.g80[id="sc-bBeLUv"]{content:"jsdhTr,"}/*!sc*/
.bjJjOj{fill:#fff9cc;stroke:var(--color-text-form-secondary-btuye6,#687078);stroke-width:0.6px;}/*!sc*/
data-styled.g81[id="sc-ihgnxF"]{content:"bjJjOj,"}/*!sc*/
.kjRSyo{stroke:var(--color-border-control-default-ie1oqq,#687078);stroke-width:1px;fill:var(--color-background-container-content-x1dxuu,#ffffff);opacity:0.5;}/*!sc*/
.node &gt; .new-look-state-node.has-errors &gt; .bounding-box &gt; .sc-jMakVo{stroke:var(--color-border-status-error-si9bvu,#d13212);fill:var(--color-background-status-error-qqw3y6,#fdf3f1);}/*!sc*/
.selected &gt; .node &gt; .new-look-state-node &gt; .bounding-box &gt; .sc-jMakVo{stroke:var(--color-border-status-info-fjyzd6,#0073bb);fill:var(--color-background-status-info-60ssq8,#f1faff);}/*!sc*/
.selected &gt; .node &gt; .new-look-state-node.has-errors &gt; .bounding-box &gt; .sc-jMakVo{stroke:var(--color-border-status-error-si9bvu,#d13212);fill:#fde0da;}/*!sc*/
data-styled.g82[id="sc-jMakVo"]{content:"kjRSyo,"}/*!sc*/
.dDqUGr{opacity:1;}/*!sc*/
data-styled.g83[id="sc-iMTnTL"]{content:"dDqUGr,"}/*!sc*/
</style><style>
.new-look-state-node &gt; rect:first-of-type {
  stroke: #687078;
  stroke-width: 1px;
  fill: #FFFFFF;
}

.new-look-state-node .error-icon circle {
 stroke-linejoin: round;
}

.new-look-state-node .error-icon circle, .new-look-state-node .error-icon path {
 stroke: var(--color-border-status-error-si9bvu, #d13212);
 fill: none;
 stroke-width: 2px;
}

.new-look-state-node.has-errors &gt; rect:first-of-type {
 stroke: var(--color-border-status-error-si9bvu, #d13212);
 fill: var(--color-background-status-error-qqw3y6, #fdf3f1);
}

.new-look-state-node.has-errors &gt; .bounding-box &gt; .new-look-state-node-sub &gt; rect {
  stroke: var(--color-border-status-error-si9bvu, #d13212);
  fill: var(--color-background-status-error-qqw3y6, #fdf3f1);
}

.new-look-state-node .handle path {
  stroke: var(--color-border-dropdown-item-hover-t6obhh, #879596);
  stroke-width: 1px;
  fill: none;
}

.new-look-state-node {
  font-weight: 400;
  font-family: Amazon Ember, Arial, Roboto, Arial, sans-serif;
  text-shadow: none;
}

.new-look-state-node .line1 {
  fill: #687078;
  font-size: 12px;
}

.new-look-state-node .line2 {
  fill: #16191f;
}

.selected.node &gt; .new-look-state-node &gt; rect,
.selected.node &gt; .new-look-state-node &gt; .new-look-state-node &gt; rect,
.selected.node &gt; .new-look-state-node &gt; .bounding-box &gt; rect,
.selected.node &gt; .new-look-state-node.has-errors &gt; rect,
.selected.node &gt; .new-look-state-node.has-errors &gt; .bounding-box &gt; rect,
.selected.node &gt; .new-look-state-node.has-errors &gt; .new-look-state-node &gt; rect,
.selected.node &gt; .new-look-state-node &gt; .bounding-box &gt; .new-look-state-node-sub &gt; rect
 {
  stroke: var(--color-border-status-info-fjyzd6, #0073bb);
  fill: var(--color-background-status-info-60ssq8, #f1faff);
  stroke-width: 1px;
}

.new-look-state-node-sub .item-source.not-specified {
  height: 15px;
  color: #687078;
  font-family: "Amazon Ember";
  font-size: 12px;
  letter-spacing: 0;
  line-height: 16px;
  font-weight: 400;
}
.new-look-state-node-sub .item-source .item-source_name{
  font-weight: 600;
}
.new-look-state-node-sub .item-source.not-specified .item-source_name{
  font-weight: 400;
}

.new-look-state-node-sub .item-source.not-specified {
  font-style: italic;
}

.new-look-state-node-sub &gt; rect,
.new-look-state-node &gt; .bounding-box &gt; rect {
  stroke: var(--color-border-control-default-ie1oqq, #687078);
  fill: #ffffff;
}

.new-look-graph .drag-source {
  opacity: 0.2;
}

.new-look-graph .edge, .new-look-graph path.starting-connection {
  stroke-width: 1px;
  stroke: var(--color-text-form-secondary-btuye6, #687078);
  marker-end: url(#large-arrowhead);
}

.new-look-graph .edge-label {
  cursor: pointer;
}

.new-look-graph .edge-label rect {
  stroke-width: 1px;
  stroke: var(--color-border-control-default-ie1oqq, #687078);
  fill: #fafafa;
}

.new-look-graph .edge-label.selected rect {
  stroke: var(--color-border-status-info-fjyzd6, #0073bb);
  fill: var(--color-background-status-info-60ssq8, #f1faff);
  stroke-width: 0.6px;
}



.new-look-graph .edge-label .label {
  fill: var(--color-text-form-secondary-btuye6, #687078);
  font-family: Amazon Ember, Arial, Roboto, Arial, sans-serif;
}

/* centering the shape text */
@-moz-document url-prefix() {
  .new-look-graph .shape + text,
  .new-look-graph .edge-label text {
    transform: translateY(3.5px);
  }
}

.new-look-graph .edge path {
  marker-end: url(#large-arrowhead) !important;
}

.new-look-graph .edge.selected path{
  stroke: var(--color-border-status-info-fjyzd6, #0073bb);
  stroke-width: 1.1px;
}

.new-look-graph .edge.dragging-over path, .new-look-graph  g.dragging-over .starting-connection {
  stroke: #5C86FF;
  stroke-width: 2px;
}

.new-look-graph .edge.dragging-over path, .new-look-graph .dragging-over path.starting-connection {
  marker-end: url(#large-highlighted-arrowhead) !important;
}

.new-look-graph .edge.dragging-over .edge-label text {
  fill: #5C86FF;
}

#large-highlighted-arrowhead {
  fill: #5C86FF;
}

#large-highlighted-arrowhead path {
  stroke: none;
}

.new-look-graph .edge.drop-not-supported path, g.drop-not-supported .starting-connection {
  stroke: red;
}

.new-look-graph .edge.drop-not-supported .edge-label text {
  fill: red;
}

.new-look-graph .edge.drop-not-supported path {
  marker-end: url(#large-error-arrowhead) !important;
}

#large-error-arrowhead {
  fill: red;
}

.node-container * &gt; .icon  {
  &gt; rect {
    fill: #fafafa;
  }
  &gt; line {
    stroke: #d5dbdb;
  }
}


.node.Placeholder.dragging-over rect {
  stroke: var(--color-border-status-info-fjyzd6, #0073bb);
  fill: var(--color-background-status-info-60ssq8, #f1faff);
  stroke-width: 2px;
}

.node.Placeholder.dragging-over .label {
  fill: var(--color-text-status-info-f9d9f2, #0073bb);
}

g.Placeholder rect {
  stroke-dasharray: 5 4;
  stroke: var(--color-border-dropdown-item-hover-t6obhh, #879596);
  fill: #ffffff;
  stroke-width: 1px;
}

g.Placeholder .label {
  font-style: italic;
  fill: var(--color-text-input-placeholder-lhl4lu, #687078);
}

.node.Placeholder.drop-not-supported rect {
  stroke: red;
}

.node.Placeholder.drop-not-supported .label {
  fill: red;
}
</style><style>.line2 { font-size: 14px }</style></svg><text x="-251.5" y="-83.5" class="line1"><tspan class="item-source" xml:space="preserve" text-anchor="start"><tspan>Origem do item</tspan><tspan class="item-source_name"><tspan>: stepfunctionssample-distributedmapn-noaadatabucket-zfrrtwhwr0s6</tspan></tspan></tspan></text><rect x="-291.5" y="113.5" width="583" height="26" class="sc-jMakVo sc-iMTnTL kjRSyo dDqUGr"/><text x="-251.5" y="129.5" class="line1"><tspan class="item-source" xml:space="preserve" text-anchor="start"><tspan>Local de exportação</tspan><tspan class="item-source_name"><tspan>: stepfunctionssample-distributedmapno-resultsbucket-8kzhuv8fhc3h</tspan></tspan></tspan></text><svg x="-276.5" y="111" width="25" height="40" viewBox="0 0 40 40" fill="none" xmlns="http://www.w3.org/2000/svg"><g id="s3-bucket" fill="#8e8e8e"><path fill="#8e8e8e" d="M20.4216667,13.3044444 L20.5516667,12.295 C21.7588889,12.9916667 22.1344444,13.4005556 22.2427778,13.5688889 C22.0627778,13.6027778 21.5733333,13.6161111 20.4216667,13.3044444 L20.4216667,13.3044444 Z M10.8333333,6.11111111 C5.06944444,6.11111111 1.32333333,4.71555556 1.11111111,3.72 L1.11111111,3.61722222 C1.305,2.99555556 4.52222222,1.11111111 10.8333333,1.11111111 C17.1333333,1.11111111 20.3511111,2.98944444 20.5555556,3.61388889 L20.5555556,3.67555556 C20.4022222,4.69222222 16.645,6.11111111 10.8333333,6.11111111 L10.8333333,6.11111111 Z M19.3433333,12.9788889 C16.6961111,12.1094444 13.2844444,10.5438889 11.9966667,9.93777778 C11.9638889,9.32555556 11.46,8.83666667 10.84,8.83666667 C10.1988889,8.83666667 9.67666667,9.35833333 9.67666667,10 C9.67666667,10.6411111 10.1988889,11.1633333 10.84,11.1633333 C11.0938889,11.1633333 11.3272222,11.0788889 11.5183333,10.9405556 C12.8511111,11.5677778 16.455,13.2211111 19.1988889,14.1 L18.2427778,21.5133333 C18.1016667,22.4177778 15.5105556,23.3333333 10.8316667,23.3333333 C6.15111111,23.3333333 3.55833333,22.4177778 3.41944444,21.5283333 L1.35277778,5.45222222 C3.30277778,6.61944444 7.08277778,7.22222222 10.8333333,7.22222222 C14.5833333,7.22222222 18.3633333,6.61944444 20.3138889,5.45277778 L19.3433333,12.9788889 Z M21.6666667,3.61111111 C21.6666667,1.90611111 17.0338889,1.77635684e-15 10.8333333,1.77635684e-15 C4.63277778,1.77635684e-15 3.55271368e-15,1.90611111 3.55271368e-15,3.61111111 L3.55271368e-15,3.91277778 L2.31888889,21.685 C2.70833333,24.1755556 8.40166667,24.4444444 10.8316667,24.4444444 C13.2605556,24.4444444 18.9516667,24.1755556 19.3433333,21.6705556 L20.2783333,14.415 C20.9877778,14.5994444 21.5622222,14.6977778 22.0088889,14.6972222 C22.5588889,14.6972222 22.9294444,14.5572222 23.165,14.2761111 C23.3594444,14.045 23.4361111,13.7533333 23.3805556,13.4561111 C23.2538889,12.7777778 22.4461111,12.0622222 20.7611111,11.1355556 L20.7055556,11.105 L21.6666667,3.91333333 L21.6666667,3.61111111 Z" id="Amazon-Simple-Storage-Service-Icon_48_Squid"/></g></svg></g><g class="content" transform="translate(-316.5,-144.5)"><g class="branch" transform="translate(196.5,124)"><g transform=""><g class="nodes"><g class="node-container" transform="translate(120,24.5)"><g class="sc-esYiGF evlsMr node state Task" data-testid="graph-Lambda Invoke" data-state-id="Lambda Invoke" data-state-type="Task"><g class="new-look-state-node "><rect x="-120" y="-24.5" width="240" height="49" rx="3" ry="3"/><g class="handle" transform="translate(-120,-24.5)"><path d="M5,16 L5,34 M8,16 L8,34"/></g><g class="icon" transform="translate(-104,-24)"><rect fill="var(--color-background-container-header-etndi4, #fafafa)" x="0.0361026108" y="0.0181291967" width="48" height="48"/><line x1="47.5" y1="0.49122807" x2="47.5" y2="47.5" stroke="var(--color-board-placeholder-active-qurjro, #d5dbdb)" stroke-linecap="square"/><line x1="0.5" y1="0.49122807" x2="0.5" y2="47.5" stroke="var(--color-board-placeholder-active-qurjro, #d5dbdb)" stroke-linecap="square"/><use href="#icon-service-lam" aria-hidden="true"><title>Lambda</title></use></g><g class="text-lines" transform="translate(-48,-24.5)"><text transform="translate(0,17)" class="line1"><tspan xml:space="preserve" text-anchor="start">Lambda: Invoke</tspan></text><text transform="translate(0,35.5)" class="line2 label"><tspan xml:space="preserve" text-anchor="start">Lambda Invoke</tspan></text></g></g></g></g><g class="node-container" transform="translate(120,92)"><g><circle class="sc-ihgnxF bjJjOj shape" r="8"/></g></g></g><g class="edges"><g class="sc-fXSgeo dMcVeZ edge"><path id="state-Lambda Invoke:end:normal" d="M120,49L120,51.916666666666664C120,54.833333333333336,120,60.666666666666664,120,66.5C120,72.33333333333333,120,78.16666666666667,120,81.08333333333333L120,84" marker-end="url(#arrowhead)" fill="none"/></g></g></g></g><g class="sc-fXSgeo dMcVeZ"><path id="ProcessNOAAData-Lambda Invoke" class="path starting-connection" d="M316.5,69L316.5,73.58333333333333C316.5,78.16666666666667,316.5,87.33333333333333,316.5,91.91666666666667C316.5,96.5,316.5,96.5,316.5,101.08333333333333C316.5,105.66666666666667,316.5,114.83333333333333,316.5,119.41666666666667L316.5,124" fill="none"/></g></g></g><g class="new-look-state-node "><rect x="-306.5" y="-144.5" width="613" height="49" rx="3" ry="3"/><g class="handle" transform="translate(-306.5,-144.5)"><path d="M5,16 L5,34 M8,16 L8,34"/></g><g class="icon" transform="translate(-290.5,-144)"><rect fill="var(--color-background-container-header-etndi4, #fafafa)" x="0.0361026108" y="0.0181291967" width="48" height="48"/><line x1="47.5" y1="0.49122807" x2="47.5" y2="47.5" stroke="var(--color-board-placeholder-active-qurjro, #d5dbdb)" stroke-linecap="square"/><line x1="0.5" y1="0.49122807" x2="0.5" y2="47.5" stroke="var(--color-board-placeholder-active-qurjro, #d5dbdb)" stroke-linecap="square"/><use href="#icon-flow-s3-object-keys"/></g><g class="text-lines" transform="translate(-234.5,-144.5)"><text transform="translate(0,17)" class="line1"><tspan xml:space="preserve" text-anchor="start">Map: S3 Object keys</tspan></text><text transform="translate(0,35.5)" class="line2 label"><tspan xml:space="preserve" text-anchor="start">ProcessNOAAData</tspan></text></g></g></g></g></g><g class="node-container" transform="translate(804.5,288)"><g class="sc-esYiGF evlsMr node state Task" data-testid="graph-ListObjectsInNoaBucket" data-state-id="ListObjectsInNoaBucket" data-state-type="Task"><g class="new-look-state-node "><rect x="-120" y="-24.5" width="240" height="49" rx="3" ry="3"/><g class="handle" transform="translate(-120,-24.5)"><path d="M5,16 L5,34 M8,16 L8,34"/></g><g class="icon" transform="translate(-104,-24)"><rect fill="var(--color-background-container-header-etndi4, #fafafa)" x="0.0361026108" y="0.0181291967" width="48" height="48"/><line x1="47.5" y1="0.49122807" x2="47.5" y2="47.5" stroke="var(--color-board-placeholder-active-qurjro, #d5dbdb)" stroke-linecap="square"/><line x1="0.5" y1="0.49122807" x2="0.5" y2="47.5" stroke="var(--color-board-placeholder-active-qurjro, #d5dbdb)" stroke-linecap="square"/><use href="#icon-service-s3" aria-hidden="true"><title>S3</title></use></g><g class="text-lines" transform="translate(-48,-24.5)"><text transform="translate(0,17)" class="line1"><tspan xml:space="preserve" text-anchor="start">S3: ListObjectsV2</tspan></text><text transform="translate(0,35.5)" class="line2 label"><tspan xml:space="preserve" text-anchor="start">ListObjectsInNoaBucket</tspan></text></g></g></g></g><g class="node-container" transform="translate(804.5,612)"><g class="sc-esYiGF evlsMr node state container Map" data-state-id="Distributed S3 copy NOA Data" data-state-type="Map"><g class="new-look-state-node "><g class="bounding-box" transform="translate(0,5)"><g class="shape new-look-state-node-sub"><rect rx="3" ry="3" x="-160" y="-264.5" width="320" height="524" class="sc-jMakVo kjRSyo"/><rect x="-121" y="-220.5" width="242" height="26" class="sc-jMakVo sc-iMTnTL kjRSyo dDqUGr"/><svg x="-106" y="-224" width="25" height="25" viewBox="0 -8 25 25" xmlns="http://www.w3.org/2000/svg"><g id="Symbols" stroke="none" stroke-width="1" fill="none" fill-rule="evenodd" opacity="0.867687044"><g id="ONE-MAP---graph---inline-map" transform="translate(-55.000000, -217.000000)" fill="#687078" fill-rule="nonzero"><g id="Group-15" transform="translate(36.000000, 213.000000)"><g id="script" transform="translate(19.000000, 4.000000)"><path d="M11.60121,15.4462891 C12.5601274,15.4462891 13.2010167,15.2896753 13.5238779,14.9764478 C13.8467393,14.6632203 14.0081699,14.0388817 14.0081699,13.1034319 L14.0081699,12.7383526 C14.0081699,12.1034319 14.1135348,10.6632203 14.3242646,10.4177176 C14.5349944,10.172215 14.9129549,10.0494637 15.4581458,10.0494637 L15.8177397,10.0494637 L15.8177397,6.83676525 L15.4581458,6.83676525 C14.9129549,6.83676525 14.5349944,6.71507213 14.3242646,6.47168589 C14.1135348,6.22829964 14.0081699,4.7870298 14.0081699,4.14787636 L14.0081699,3.782797 C14.0081699,2.84734726 13.8467393,2.22406684 13.5238779,1.91295573 C13.2010167,1.60184462 12.5601274,1.44628906 11.60121,1.44628906 L9.8177397,1.44628906 L9.8177397,3.65263827 L10.519528,3.65263827 C10.9255213,3.65263827 11.1971501,3.74364356 11.3344144,3.92565414 C11.4716788,4.10766472 11.540311,5.49708271 11.540311,6.09390811 L11.540311,6.42089224 C11.540311,7.11930494 11.6340761,7.61031023 11.8216063,7.89390811 C12.0091365,8.17750599 12.3464975,8.35951658 12.8336895,8.43993986 C12.3503642,8.52882875 12.0139698,8.71718853 11.8245063,9.00501922 C11.6350428,9.29284991 11.540311,9.7838552 11.540311,10.4780351 L11.540311,10.7796224 C11.540311,11.3849134 11.4707122,12.7785642 11.3315144,12.9605748 C11.1923168,13.1425854 10.9216547,13.2335906 10.519528,13.2335906 L9.8177397,13.2335906 L9.8177397,15.4462891 L11.60121,15.4462891 Z" id="}"/><path d="M3.03295652,15.4462891 C3.99187387,15.4462891 4.63276319,15.2896753 4.95562448,14.9764478 C5.27848577,14.6632203 5.43991641,14.0388817 5.43991641,13.1034319 L5.43991641,12.7383526 C5.43991641,12.1034319 5.54528132,10.6632203 5.75601114,10.4177176 C5.96674096,10.172215 6.34470133,10.0494637 6.88989225,10.0494637 L7.24948625,10.0494637 L7.24948625,6.83676525 L6.88989225,6.83676525 C6.34470133,6.83676525 5.96674096,6.71507213 5.75601114,6.47168589 C5.54528132,6.22829964 5.43991641,4.7870298 5.43991641,4.14787636 L5.43991641,3.782797 C5.43991641,2.84734726 5.27848577,2.22406684 4.95562448,1.91295573 C4.63276319,1.60184462 3.99187387,1.44628906 3.03295652,1.44628906 L1.24948625,1.44628906 L1.24948625,3.65263827 L1.95127455,3.65263827 C2.35726778,3.65263827 2.62889659,3.74364356 2.76616097,3.92565414 C2.90342535,4.10766472 2.97205754,4.49708271 2.97205754,5.09390811 L2.97205754,5.42089224 C2.97205754,6.11930494 3.06582265,7.61031023 3.25335285,7.89390811 C3.44088306,8.17750599 3.7782441,8.35951658 4.26543598,8.43993986 C3.7821107,8.52882875 3.44571631,8.71718853 3.25625281,9.00501922 C3.0667893,9.29284991 2.97205754,9.7838552 2.97205754,10.4780351 L2.97205754,10.7796224 C2.97205754,11.3849134 2.9024587,12.7785642 2.76326102,12.9605748 C2.62406334,13.1425854 2.35340119,13.2335906 1.95127455,13.2335906 L1.24948625,13.2335906 L1.24948625,15.4462891 L3.03295652,15.4462891 Z" id="}-copy" transform="translate(4.249486, 8.446289) scale(-1, 1) translate(-4.249486, -8.446289) "/></g></g></g></g></svg><text x="-81" y="-203.5" class="line1"><tspan class="item-source" xml:space="preserve" text-anchor="start"><tspan>Origem do item</tspan><tspan class="item-source_name"><tspan>: JSON Payload</tspan></tspan></tspan></text></g><g class="content" transform="translate(-160,-264.5)"><g class="branch" transform="translate(20,124)"><g transform=""><g class="nodes"><g class="node-container" transform="translate(140,144.5)"><g class="sc-esYiGF evlsMr node state container Map" data-state-id="Map" data-state-type="Map"><g class="new-look-state-node "><g class="bounding-box" transform="translate(0,5)"><g class="shape new-look-state-node-sub"><rect rx="3" ry="3" x="-140" y="-144.5" width="280" height="284" class="sc-jMakVo kjRSyo"/><rect x="-105" y="-100.5" width="210" height="26" class="sc-jMakVo sc-iMTnTL kjRSyo dDqUGr"/><svg x="-90" y="-104" width="25" height="25" viewBox="0 -8 25 25" xmlns="http://www.w3.org/2000/svg"><g id="Symbols" stroke="none" stroke-width="1" fill="none" fill-rule="evenodd" opacity="0.867687044"><g id="ONE-MAP---graph---inline-map" transform="translate(-55.000000, -217.000000)" fill="#687078" fill-rule="nonzero"><g id="Group-15" transform="translate(36.000000, 213.000000)"><g id="script" transform="translate(19.000000, 4.000000)"><path d="M11.60121,15.4462891 C12.5601274,15.4462891 13.2010167,15.2896753 13.5238779,14.9764478 C13.8467393,14.6632203 14.0081699,14.0388817 14.0081699,13.1034319 L14.0081699,12.7383526 C14.0081699,12.1034319 14.1135348,10.6632203 14.3242646,10.4177176 C14.5349944,10.172215 14.9129549,10.0494637 15.4581458,10.0494637 L15.8177397,10.0494637 L15.8177397,6.83676525 L15.4581458,6.83676525 C14.9129549,6.83676525 14.5349944,6.71507213 14.3242646,6.47168589 C14.1135348,6.22829964 14.0081699,4.7870298 14.0081699,4.14787636 L14.0081699,3.782797 C14.0081699,2.84734726 13.8467393,2.22406684 13.5238779,1.91295573 C13.2010167,1.60184462 12.5601274,1.44628906 11.60121,1.44628906 L9.8177397,1.44628906 L9.8177397,3.65263827 L10.519528,3.65263827 C10.9255213,3.65263827 11.1971501,3.74364356 11.3344144,3.92565414 C11.4716788,4.10766472 11.540311,5.49708271 11.540311,6.09390811 L11.540311,6.42089224 C11.540311,7.11930494 11.6340761,7.61031023 11.8216063,7.89390811 C12.0091365,8.17750599 12.3464975,8.35951658 12.8336895,8.43993986 C12.3503642,8.52882875 12.0139698,8.71718853 11.8245063,9.00501922 C11.6350428,9.29284991 11.540311,9.7838552 11.540311,10.4780351 L11.540311,10.7796224 C11.540311,11.3849134 11.4707122,12.7785642 11.3315144,12.9605748 C11.1923168,13.1425854 10.9216547,13.2335906 10.519528,13.2335906 L9.8177397,13.2335906 L9.8177397,15.4462891 L11.60121,15.4462891 Z" id="}"/><path d="M3.03295652,15.4462891 C3.99187387,15.4462891 4.63276319,15.2896753 4.95562448,14.9764478 C5.27848577,14.6632203 5.43991641,14.0388817 5.43991641,13.1034319 L5.43991641,12.7383526 C5.43991641,12.1034319 5.54528132,10.6632203 5.75601114,10.4177176 C5.96674096,10.172215 6.34470133,10.0494637 6.88989225,10.0494637 L7.24948625,10.0494637 L7.24948625,6.83676525 L6.88989225,6.83676525 C6.34470133,6.83676525 5.96674096,6.71507213 5.75601114,6.47168589 C5.54528132,6.22829964 5.43991641,4.7870298 5.43991641,4.14787636 L5.43991641,3.782797 C5.43991641,2.84734726 5.27848577,2.22406684 4.95562448,1.91295573 C4.63276319,1.60184462 3.99187387,1.44628906 3.03295652,1.44628906 L1.24948625,1.44628906 L1.24948625,3.65263827 L1.95127455,3.65263827 C2.35726778,3.65263827 2.62889659,3.74364356 2.76616097,3.92565414 C2.90342535,4.10766472 2.97205754,4.49708271 2.97205754,5.09390811 L2.97205754,5.42089224 C2.97205754,6.11930494 3.06582265,7.61031023 3.25335285,7.89390811 C3.44088306,8.17750599 3.7782441,8.35951658 4.26543598,8.43993986 C3.7821107,8.52882875 3.44571631,8.71718853 3.25625281,9.00501922 C3.0667893,9.29284991 2.97205754,9.7838552 2.97205754,10.4780351 L2.97205754,10.7796224 C2.97205754,11.3849134 2.9024587,12.7785642 2.76326102,12.9605748 C2.62406334,13.1425854 2.35340119,13.2335906 1.95127455,13.2335906 L1.24948625,13.2335906 L1.24948625,15.4462891 L3.03295652,15.4462891 Z" id="}-copy" transform="translate(4.249486, 8.446289) scale(-1, 1) translate(-4.249486, -8.446289) "/></g></g></g></g></svg><text x="-65" y="-83.5" class="line1"><tspan class="item-source" xml:space="preserve" text-anchor="start"><tspan>Origem do item</tspan><tspan class="item-source_name"><tspan>: JSON Payload</tspan></tspan></tspan></text></g><g class="content" transform="translate(-140,-144.5)"><g class="branch" transform="translate(20,124)"><g transform=""><g class="nodes"><g class="node-container" transform="translate(120,24.5)"><g class="sc-esYiGF evlsMr node state Task" data-testid="graph-CopyObject" data-state-id="CopyObject" data-state-type="Task"><g class="new-look-state-node "><rect x="-120" y="-24.5" width="240" height="49" rx="3" ry="3"/><g class="handle" transform="translate(-120,-24.5)"><path d="M5,16 L5,34 M8,16 L8,34"/></g><g class="icon" transform="translate(-104,-24)"><rect fill="var(--color-background-container-header-etndi4, #fafafa)" x="0.0361026108" y="0.0181291967" width="48" height="48"/><line x1="47.5" y1="0.49122807" x2="47.5" y2="47.5" stroke="var(--color-board-placeholder-active-qurjro, #d5dbdb)" stroke-linecap="square"/><line x1="0.5" y1="0.49122807" x2="0.5" y2="47.5" stroke="var(--color-board-placeholder-active-qurjro, #d5dbdb)" stroke-linecap="square"/><use href="#icon-service-s3" aria-hidden="true"><title>S3</title></use></g><g class="text-lines" transform="translate(-48,-24.5)"><text transform="translate(0,17)" class="line1"><tspan xml:space="preserve" text-anchor="start">S3: CopyObject</tspan></text><text transform="translate(0,35.5)" class="line2 label"><tspan xml:space="preserve" text-anchor="start">CopyObject</tspan></text></g></g></g></g><g class="node-container" transform="translate(120,92)"><g><circle class="sc-ihgnxF bjJjOj shape" r="8"/></g></g></g><g class="edges"><g class="sc-fXSgeo dMcVeZ edge"><path id="state-CopyObject:end:normal" d="M120,49L120,51.916666666666664C120,54.833333333333336,120,60.666666666666664,120,66.5C120,72.33333333333333,120,78.16666666666667,120,81.08333333333333L120,84" marker-end="url(#arrowhead)" fill="none"/></g></g></g></g><g class="sc-fXSgeo dMcVeZ"><path id="Map-CopyObject" class="path starting-connection" d="M140,69L140,73.58333333333333C140,78.16666666666667,140,87.33333333333333,140,91.91666666666667C140,96.5,140,96.5,140,101.08333333333333C140,105.66666666666667,140,114.83333333333333,140,119.41666666666667L140,124" fill="none"/></g></g></g><g class="new-look-state-node "><rect x="-120" y="-144.5" width="240" height="49" rx="3" ry="3"/><g class="handle" transform="translate(-120,-144.5)"><path d="M5,16 L5,34 M8,16 L8,34"/></g><g class="icon" transform="translate(-104,-144)"><rect fill="var(--color-background-container-header-etndi4, #fafafa)" x="0.0361026108" y="0.0181291967" width="48" height="48"/><line x1="47.5" y1="0.49122807" x2="47.5" y2="47.5" stroke="var(--color-board-placeholder-active-qurjro, #d5dbdb)" stroke-linecap="square"/><line x1="0.5" y1="0.49122807" x2="0.5" y2="47.5" stroke="var(--color-board-placeholder-active-qurjro, #d5dbdb)" stroke-linecap="square"/><use href="#icon-flow-map"/></g><g class="text-lines" transform="translate(-48,-144.5)"><text transform="translate(0,17)" class="line1"><tspan xml:space="preserve" text-anchor="start">Map state</tspan></text><text transform="translate(0,35.5)" class="line2 label"><tspan xml:space="preserve" text-anchor="start">Map</tspan></text></g></g></g></g></g><g class="node-container" transform="translate(140,332)"><g><circle class="sc-ihgnxF bjJjOj shape" r="8"/></g></g></g><g class="edges"><g class="sc-fXSgeo dMcVeZ edge"><path id="state-Map:end:normal" d="M140,289L140,291.9166666666667C140,294.8333333333333,140,300.6666666666667,140,306.5C140,312.3333333333333,140,318.1666666666667,140,321.0833333333333L140,324" marker-end="url(#arrowhead)" fill="none"/></g></g></g></g><g class="sc-fXSgeo dMcVeZ"><path id="Distributed S3 copy NOA Data-Map" class="path starting-connection" d="M160,69L160,73.58333333333333C160,78.16666666666667,160,87.33333333333333,160,91.91666666666667C160,96.5,160,96.5,160,101.08333333333333C160,105.66666666666667,160,114.83333333333333,160,119.41666666666667L160,124" fill="none"/></g></g></g><g class="new-look-state-node "><rect x="-136" y="-264.5" width="272" height="49" rx="3" ry="3"/><g class="handle" transform="translate(-136,-264.5)"><path d="M5,16 L5,34 M8,16 L8,34"/></g><g class="icon" transform="translate(-120,-264)"><rect fill="var(--color-background-container-header-etndi4, #fafafa)" x="0.0361026108" y="0.0181291967" width="48" height="48"/><line x1="47.5" y1="0.49122807" x2="47.5" y2="47.5" stroke="var(--color-board-placeholder-active-qurjro, #d5dbdb)" stroke-linecap="square"/><line x1="0.5" y1="0.49122807" x2="0.5" y2="47.5" stroke="var(--color-board-placeholder-active-qurjro, #d5dbdb)" stroke-linecap="square"/><use href="#icon-flow-distributedmap"/></g><g class="text-lines" transform="translate(-64,-264.5)"><text transform="translate(0,17)" class="line1"><tspan xml:space="preserve" text-anchor="start">Map: JSON Payload</tspan></text><text transform="translate(0,35.5)" class="line2 label"><tspan xml:space="preserve" text-anchor="start">Distributed S3 copy NOA Data</tspan></text></g></g></g></g></g><g class="node-container" transform="translate(604.5,936)"><g class="sc-esYiGF evlsMr node state Choice" data-testid="graph-Has next page?" data-state-id="Has next page?" data-state-type="Choice"><g class="new-look-state-node "><rect x="-120" y="-24.5" width="240" height="49" rx="3" ry="3"/><g class="handle" transform="translate(-120,-24.5)"><path d="M5,16 L5,34 M8,16 L8,34"/></g><g class="icon" transform="translate(-104,-24)"><rect fill="var(--color-background-container-header-etndi4, #fafafa)" x="0.0361026108" y="0.0181291967" width="48" height="48"/><line x1="47.5" y1="0.49122807" x2="47.5" y2="47.5" stroke="var(--color-board-placeholder-active-qurjro, #d5dbdb)" stroke-linecap="square"/><line x1="0.5" y1="0.49122807" x2="0.5" y2="47.5" stroke="var(--color-board-placeholder-active-qurjro, #d5dbdb)" stroke-linecap="square"/><use href="#icon-flow-choice"/></g><g class="text-lines" transform="translate(-48,-24.5)"><text transform="translate(0,17)" class="line1"><tspan xml:space="preserve" text-anchor="start">Choice state</tspan></text><text transform="translate(0,35.5)" class="line2 label"><tspan xml:space="preserve" text-anchor="start">Has next page?</tspan></text></g></g></g></g><g class="node-container" transform="translate(841.5,1156.5)"><g class="sc-esYiGF evlsMr node state Task" data-testid="graph-ListObjectsInNoaBucket with pagination" data-state-id="ListObjectsInNoaBucket with pagination" data-state-type="Task"><g class="new-look-state-node "><rect x="-168.5" y="-24.5" width="337" height="49" rx="3" ry="3"/><g class="handle" transform="translate(-168.5,-24.5)"><path d="M5,16 L5,34 M8,16 L8,34"/></g><g class="icon" transform="translate(-152.5,-24)"><rect fill="var(--color-background-container-header-etndi4, #fafafa)" x="0.0361026108" y="0.0181291967" width="48" height="48"/><line x1="47.5" y1="0.49122807" x2="47.5" y2="47.5" stroke="var(--color-board-placeholder-active-qurjro, #d5dbdb)" stroke-linecap="square"/><line x1="0.5" y1="0.49122807" x2="0.5" y2="47.5" stroke="var(--color-board-placeholder-active-qurjro, #d5dbdb)" stroke-linecap="square"/><use href="#icon-service-s3" aria-hidden="true"><title>S3</title></use></g><g class="text-lines" transform="translate(-96.5,-24.5)"><text transform="translate(0,17)" class="line1"><tspan xml:space="preserve" text-anchor="start">S3: ListObjectsV2</tspan></text><text transform="translate(0,35.5)" class="line2 label"><tspan xml:space="preserve" text-anchor="start">ListObjectsInNoaBucket with pagination</tspan></text></g></g></g></g><g class="node-container" transform="translate(316.5,1360.5)"><g class="sc-esYiGF evlsMr node state Task" data-testid="graph-Reducer" data-state-id="Reducer" data-state-type="Task"><g class="new-look-state-node "><rect x="-120" y="-24.5" width="240" height="49" rx="3" ry="3"/><g class="handle" transform="translate(-120,-24.5)"><path d="M5,16 L5,34 M8,16 L8,34"/></g><g class="icon" transform="translate(-104,-24)"><rect fill="var(--color-background-container-header-etndi4, #fafafa)" x="0.0361026108" y="0.0181291967" width="48" height="48"/><line x1="47.5" y1="0.49122807" x2="47.5" y2="47.5" stroke="var(--color-board-placeholder-active-qurjro, #d5dbdb)" stroke-linecap="square"/><line x1="0.5" y1="0.49122807" x2="0.5" y2="47.5" stroke="var(--color-board-placeholder-active-qurjro, #d5dbdb)" stroke-linecap="square"/><use href="#icon-service-lam" aria-hidden="true"><title>Lambda</title></use></g><g class="text-lines" transform="translate(-48,-24.5)"><text transform="translate(0,17)" class="line1"><tspan xml:space="preserve" text-anchor="start">Lambda: Invoke</tspan></text><text transform="translate(0,35.5)" class="line2 label"><tspan xml:space="preserve" text-anchor="start">Reducer</tspan></text></g></g></g></g><g class="node-container" transform="translate(316.5,1442)"><g><circle class="sc-bBeLUv jsdhTr shape" r="22"/><text class="sc-fvtFIe iKjDaH label"><tspan xml:space="preserve" text-anchor="middle" alignment-baseline="central">End</tspan></text></g></g></g><g class="edges"><g class="sc-fXSgeo dMcVeZ edge"><path id="state-CheckBucketContents:state-ValidaArquivo:normal" d="M579,128L579,130.91666666666666C579,133.83333333333334,579,139.66666666666666,579,145.5C579,151.33333333333334,579,157.16666666666666,579,160.08333333333334L579,163" marker-end="url(#arrowhead)" fill="none"/></g><g class="sc-fXSgeo dMcVeZ edge"><path id="start:state-CheckBucketContents" d="M579,44L579,46.916666666666664C579,49.833333333333336,579,55.666666666666664,579,61.5C579,67.33333333333333,579,73.16666666666667,579,76.08333333333333L579,79" marker-end="url(#arrowhead)" fill="none"/></g><g class="sc-fXSgeo dMcVeZ edge"><path id="state-ValidaArquivo:state-ProcessNOAAData:choiceRule:0" d="M459,209.22972972972974L432.75,213.98310810810813C406.5,218.73648648648648,354,228.24324324324326,327.75,241.37162162162164C301.5,254.5,301.5,271.25,301.5,286.625C301.5,302,301.5,316,301.5,370C301.5,424,301.5,518,301.5,612C301.5,706,301.5,800,301.5,854C301.5,908,301.5,922,301.5,937.375C301.5,952.75,301.5,969.5,301.87812041116007,982.1666666666666C302.2562408223201,994.8333333333334,303.0124816446402,1003.4166666666666,303.3906020558003,1007.7083333333334L303.76872246696036,1012" marker-end="url(#arrowhead)" fill="none"/><g data-testid="graph-ValidaArquivo-0" class="edge-label" transform="translate(327.75,241.37162162162164)"><rect x="-60.5" y="-8.25" width="121" height="16.5" class="sc-JrDLc kqgysD"/><text class="sc-fjvvzt jIeroT label"><tspan xml:space="preserve" text-anchor="middle" alignment-baseline="central">{% $states.input &gt;= 1%}</tspan><title>{% $states.input &gt;= 1%}</title></text></g></g><g class="sc-fXSgeo dMcVeZ edge"><path id="state-ValidaArquivo:state-ListObjectsInNoaBucket:choiceDefault" d="M688.9452736318408,212L708.2043946932007,216.29166666666666C727.4635157545605,220.58333333333334,765.9817578772803,229.16666666666666,785.2408789386401,237.75C804.5,246.33333333333334,804.5,254.91666666666666,804.5,259.2083333333333L804.5,263.5" marker-end="url(#arrowhead)" fill="none"/><g data-testid="graph-ValidaArquivo-Default" class="edge-label" transform="translate(785.2408789386401,237.75)"><rect x="-22" y="-8.25" width="44" height="16.5" class="sc-JrDLc kqgysD"/><text class="sc-fjvvzt jIeroT label"><tspan xml:space="preserve" text-anchor="middle" alignment-baseline="central">Default</tspan><title>Default</title></text></g></g><g class="sc-fXSgeo dMcVeZ edge"><path id="state-ListObjectsInNoaBucket:state-Distributed S3 copy NOA Data:normal" d="M804.5,312.5L804.5,315.4166666666667C804.5,318.3333333333333,804.5,324.1666666666667,804.5,330C804.5,335.8333333333333,804.5,341.6666666666667,804.5,344.5833333333333L804.5,347.5" marker-end="url(#arrowhead)" fill="none"/></g><g class="sc-fXSgeo dMcVeZ edge"><path id="state-Distributed S3 copy NOA Data:state-Has next page?:normal" d="M644.5,837.6L637.8333333333334,847C631.1666666666666,856.4,617.8333333333334,875.1999999999999,611.1666666666666,887.5166666666668C604.5,899.8333333333334,604.5,905.6666666666666,604.5,908.5833333333334L604.5,911.5" marker-end="url(#arrowhead)" fill="none"/></g><g class="sc-fXSgeo dMcVeZ edge"><path id="state-Has next page?:state-ListObjectsInNoaBucket with pagination:choiceRule:0" d="M622.5398009950248,960.5L625.6998341625207,964.7916666666666C628.8598673300165,969.0833333333334,635.1799336650083,977.6666666666666,666.8764328139041,1006.25C698.5729319627999,1034.8333333333333,755.6458639255997,1083.4166666666667,784.1823299069996,1107.7083333333333L812.7187958883994,1132" marker-end="url(#arrowhead)" fill="none"/><g data-testid="graph-Has next page?-0" class="edge-label" transform="translate(666.8764328139041,1006.25)"><rect x="-103" y="-8.25" width="206" height="16.5" class="sc-JrDLc kqgysD"/><text class="sc-fjvvzt jIeroT label"><tspan xml:space="preserve" text-anchor="middle" alignment-baseline="central">{% $exists($states.input.NextContinuatio…</tspan><title>{% $exists($states.input.NextContinuationToken) %}</title></text></g></g><g class="sc-fXSgeo dMcVeZ edge"><path id="state-Has next page?:state-ProcessNOAAData:choiceDefault" d="M574.0273631840796,960.5L568.6894693200663,964.7916666666666C563.3515754560531,969.0833333333334,552.6757877280265,977.6666666666666,541.653483682907,986.25C530.6311796377876,994.8333333333334,519.2623592755751,1003.4166666666666,513.5779490944689,1007.7083333333334L507.8935389133627,1012" marker-end="url(#arrowhead)" fill="none"/><g data-testid="graph-Has next page?-Default" class="edge-label" transform="translate(541.653483682907,986.25)"><rect x="-22" y="-8.25" width="44" height="16.5" class="sc-JrDLc kqgysD"/><text class="sc-fjvvzt jIeroT label"><tspan xml:space="preserve" text-anchor="middle" alignment-baseline="central">Default</tspan><title>Default</title></text></g></g><g class="sc-fXSgeo dMcVeZ edge"><path id="state-ListObjectsInNoaBucket with pagination:state-Distributed S3 copy NOA Data:normal" d="M858.4809104258444,1132L875.3174253548704,1107.7083333333333C892.1539402838962,1083.4166666666667,925.8269701419481,1034.8333333333333,942.6634850709742,1002.1666666666666C959.5,969.5,959.5,952.75,959.5,937.375C959.5,922,959.5,908,957.8968676122931,898.0833333333334C956.2937352245863,888.1666666666666,953.0874704491725,882.3333333333334,951.4843380614657,879.4166666666666L949.8812056737588,876.5" marker-end="url(#arrowhead)" fill="none"/></g><g class="sc-fXSgeo dMcVeZ edge"><path id="state-ProcessNOAAData:state-Reducer:normal" d="M316.5,1301L316.5,1303.9166666666667C316.5,1306.8333333333333,316.5,1312.6666666666667,316.5,1318.5C316.5,1324.3333333333333,316.5,1330.1666666666667,316.5,1333.0833333333333L316.5,1336" marker-end="url(#arrowhead)" fill="none"/></g><g class="sc-fXSgeo dMcVeZ edge"><path id="state-Reducer:end:normal" d="M316.5,1385L316.5,1387.9166666666667C316.5,1390.8333333333333,316.5,1396.6666666666667,316.5,1402.5C316.5,1408.3333333333333,316.5,1414.1666666666667,316.5,1417.0833333333333L316.5,1420" marker-end="url(#arrowhead)" fill="none"/></g></g><defs><marker id="arrowhead" markerWidth="8" markerHeight="6" refX="7" refY="3" orient="auto" class="sc-iMWBiJ bhtxUI"><polygon points="0 0, 8 3, 0 6"/></marker><marker id="highlighted-arrowhead" markerWidth="6" markerHeight="4" refX="5" refY="2" orient="auto" class="sc-iMWBiJ bhtxUI"><polygon points="0 0, 6 2, 0 4"/></marker><marker id="error-arrowhead" markerWidth="6" markerHeight="4" refX="5" refY="2" orient="auto" class="sc-iMWBiJ bhtxUI"><polygon points="0 0, 6 2, 0 4"/></marker><marker id="large-arrowhead" markerWidth="10" markerHeight="8" refX="9" refY="4" orient="auto" class="sc-iMWBiJ bhtxUI"><polygon points="0 0, 10 4, 0 8"/></marker><marker id="large-highlighted-arrowhead" markerWidth="5.5" markerHeight="4" refX="4.5" refY="2" orient="auto" class="sc-iMWBiJ bhtxUI"><polygon points="0 0, 5.5 2, 0 4"/></marker><marker id="large-error-arrowhead" markerWidth="10" markerHeight="8" refX="9" refY="4" orient="auto" class="sc-iMWBiJ bhtxUI"><polygon points="0 0, 10 4, 0 8"/></marker><linearGradient x1="0%" y1="100%" x2="100%" y2="0%" id="gradient-orange"><stop stop-color="#C8511B" offset="0%"/><stop stop-color="#FF9900" offset="100%"/></linearGradient><linearGradient x1="0%" y1="100%" x2="100%" y2="0%" id="gradient-turquoise"><stop stop-color="#055F4E" offset="0%"/><stop stop-color="#56C0A7" offset="100%"/></linearGradient><linearGradient x1="0%" y1="100%" x2="100%" y2="0%" id="gradient-blue"><stop stop-color="#2E27AD" offset="0%"/><stop stop-color="#527FFF" offset="100%"/></linearGradient><linearGradient x1="0%" y1="100%" x2="100%" y2="0%" id="gradient-pink"><stop stop-color="#B0084D" offset="0%"/><stop stop-color="#FF4F8B" offset="100%"/></linearGradient><linearGradient x1="0%" y1="100%" x2="100%" y2="0%" id="gradient-red"><stop stop-color="#BD0816" offset="0%"/><stop stop-color="#FF5252" offset="100%"/></linearGradient><linearGradient x1="0%" y1="100%" x2="100%" y2="0%" id="gradient-green"><stop stop-color="#1B660F" offset="0%"/><stop stop-color="#6CAE3E" offset="100%"/></linearGradient><linearGradient x1="0%" y1="100%" x2="100%" y2="0%" id="gradient-purple"><stop stop-color="#4D27A8" offset="0%"/><stop stop-color="#A166FF" offset="100%"/></linearGradient><linearGradient x1="0%" y1="100%" x2="100%" y2="0%" id="gradient-grey"><stop stop-color="#DCDCDC" offset="0%"/><stop stop-color="#F6F5F7" offset="100%"/></linearGradient><linearGradient x1="0%" y1="100%" x2="100%" y2="0%" id="gradient-light-pink"><stop stop-color="#DD344C" offset="0%"/><stop stop-color="#DD344C" offset="100%"/></linearGradient>,<linearGradient x1="0%" y1="100%" x2="100%" y2="0%" id="gradient-ag"><stop stop-color="#BC1356" offset="0%"/><stop stop-color="#F34482" offset="100%"/></linearGradient><linearGradient x1="0%" y1="100%" x2="100%" y2="0%" id="gradient-athena"><stop stop-color="#5930B5" offset="0%"/><stop stop-color="#945DF2" offset="100%"/></linearGradient><linearGradient x1="0%" y1="100%" x2="100%" y2="0%" id="gradient-emr"><stop stop-color="#5930B5" offset="0%"/><stop stop-color="#945DF2" offset="100%"/></linearGradient><linearGradient x1="0%" y1="100%" x2="100%" y2="0%" id="gradient-glue"><stop stop-color="#5930B5" offset="0%"/><stop stop-color="#945DF2" offset="100%"/></linearGradient><linearGradient x1="0%" y1="100%" x2="100%" y2="0%" id="gradient-sns"><stop stop-color="#BC1356" offset="0%"/><stop stop-color="#F34482" offset="100%"/></linearGradient><linearGradient x1="0%" y1="100%" x2="100%" y2="0%" id="gradient-states"><stop stop-color="#BC1356" offset="0%"/><stop stop-color="#F34482" offset="100%"/></linearGradient><linearGradient x1="0%" y1="100%" x2="100%" y2="0%" id="gradient-generic"><stop stop-color="#ccc" offset="0%"/><stop stop-color="#ddd" offset="100%"/></linearGradient><g stroke="none" stroke-width="1" fill="none" fill-rule="evenodd" id="icon-flow-map"><g transform="translate(7.250000, 12.250000)" fill="#0073BB" fill-rule="nonzero"><path d="M18.75 6.75C19.3023 6.75 19.75 7.19772 19.75 7.75V10.75C19.75 11.3023 19.3023 11.75 18.75 11.75H17V14.75H18.75C19.3023 14.75 19.75 15.1977 19.75 15.75V18.75C19.75 19.3023 19.3023 19.75 18.75 19.75H13.75C13.1977 19.75 12.75 19.3023 12.75 18.75V15.75C12.75 15.1977 13.1977 14.75 13.75 14.75H15.5V11.75H13.75C13.1977 11.75 12.75 11.3023 12.75 10.75V7.75C12.75 7.19772 13.1977 6.75 13.75 6.75H18.75ZM18.25 16.25H14.25V18.25H18.25V16.25ZM18.25 8.25H14.25V10.25H18.25V8.25Z" fill="false"/><path d="M4.36774 12.9782L4.25582 12.9874L4.16664 12.9828L4.0991 12.9721L4.01773 12.9507L3.91439 12.9084L3.84086 12.8662L3.80379 12.8403L3.71967 12.7677L0.21967 9.26773C-0.0732233 8.97484 -0.0732233 8.49996 0.21967 8.20707C0.485936 7.9408 0.9026 7.9166 1.19621 8.13445L1.28033 8.20707L3.5 10.427V5.75C3.5 2.64821 5.95602 0.120063 9.02944 0.00415208L9.25 0H24.25C27.3101 0 29.8183 2.39279 29.9906 5.418L29.9991 5.65629L30 7.75C30 8.16421 29.6642 8.5 29.25 8.5C28.8358 8.5 28.5 8.16421 28.5 7.75L28.4992 5.66855C28.4572 3.42607 26.6797 1.6129 24.4594 1.50507L24.25 1.5H9.25C6.97183 1.5 5.11231 3.29251 5.0049 5.54408L5 5.75V10.426L7.21967 8.20707L7.30379 8.13445C7.5974 7.9166 8.01406 7.9408 8.28033 8.20707C8.5466 8.47334 8.5708 8.89 8.35295 9.18361L8.28033 9.26773L4.78033 12.7677C4.7427 12.8054 4.70207 12.8382 4.65921 12.8661L4.58539 12.9085L4.50826 12.9417L4.44164 12.9626L4.36774 12.9782Z" fill="false"/><path d="M29.1567 12.4673L29.2442 12.4615L29.3612 12.4698L29.4099 12.4787L29.4761 12.4963L29.5349 12.5175L29.6052 12.5507L29.6962 12.6086L29.7803 12.6812L33.2803 16.1812C33.5732 16.4741 33.5732 16.949 33.2803 17.2419C33.0141 17.5081 32.5974 17.5323 32.3038 17.3145L32.2197 17.2419L30 15.0225V19.75C30 22.8518 27.544 25.3799 24.4706 25.4959L24.25 25.5H9.25C6.22365 25.5 3.73213 23.158 3.5153 20.1725L3.503 19.9226L3.5 17.75C3.5 17.3358 3.83579 17 4.25 17C4.6297 17 4.94349 17.2822 4.99315 17.6482L5 17.75L5.00248 19.8967C5.07738 22.112 6.8452 23.8894 9.04276 23.995L9.25 24H24.25C26.5282 24 28.3877 22.2075 28.4951 19.9559L28.5 19.75V15.0215L26.2803 17.2419L26.1962 17.3145C25.9026 17.5323 25.4859 17.5081 25.2197 17.2419C24.9534 16.9756 24.9292 16.5589 25.1471 16.2653L25.2197 16.1812L28.7197 12.6812L28.797 12.6137L28.8948 12.5507L28.965 12.5176L29.0427 12.4906L29.09 12.4787L29.1567 12.4673Z" fill="false"/></g></g><g stroke="none" stroke-width="1" fill="none" fill-rule="evenodd" id="icon-flow-distributedmap"><use href="#icon-flow-map"/></g><g stroke="none" stroke-width="1" fill="none" fill-rule="evenodd" id="icon-flow-choice"><g transform="translate(9.252020, 8.729185)" fill="#0073BB" fill-rule="nonzero"><path d="M13.7176503,0.219669914 C13.9839168,-0.0465966484 14.4005805,-0.0708026996 14.694192,0.147051761 L14.7783104,0.219669914 L26.7991257,12.2404852 C27.0653923,12.5067518 27.0895983,12.9234154 26.8717439,13.2170269 L26.7991257,13.3011454 L19.848,20.251 L27.063,27.58 L27.0635443,24.4725437 C27.0635443,24.0583302 27.3993308,23.7225437 27.8135443,23.7225437 C28.1901021,23.7225437 28.5018441,24.0000532 28.5554124,24.3617142 L28.5635443,24.4725437 L28.5635443,29.4222912 C28.5635443,29.4735748 28.5583971,29.5236562 28.5485912,29.5720469 L28.5290567,29.6477745 L28.4912259,29.7440224 L28.4674556,29.7898473 L28.4399848,29.8348433 L28.3922808,29.8993609 L28.3266417,29.9693147 L28.2903734,30.0012261 L28.2103598,30.0588356 L28.1372883,30.0990133 L28.0408973,30.1372113 L27.9243738,30.1641593 C27.8841362,30.1698129 27.8491297,30.1722912 27.8135443,30.1722912 L22.8637969,30.1722912 C22.4495833,30.1722912 22.1137969,29.8365048 22.1137969,29.4222912 C22.1137969,29.0457334 22.3913063,28.7339914 22.7529674,28.6804231 L22.8637969,28.6722912 L26.032,28.672 L18.787,21.312 L14.7783104,25.3219606 C14.5120439,25.5882272 14.0953802,25.6124333 13.8017687,25.3945788 L13.7176503,25.3219606 L9.63,21.234 L2.386,28.671 L5.69974747,28.6722912 L5.81057697,28.6804231 C6.17223802,28.7339914 6.44974747,29.0457334 6.44974747,29.4222912 C6.44974747,29.801987 6.16759359,30.1157822 5.80151803,30.1654446 L5.69974747,30.1722912 L0.75,30.1722912 L0.645175107,30.1650238 L0.571316134,30.150876 L0.491748953,30.1266437 L0.399838514,30.0857012 L0.323957521,30.0396165 L0.243169757,29.975129 L0.170912131,29.8989347 L0.109961584,29.8134582 L0.0656949991,29.7297074 L0.0297396696,29.6320944 L0.0076057584,29.5294944 L6.67910172e-13,29.4222912 L6.67910172e-13,24.4725437 L0.00813192572,24.3617142 C0.0617002376,24.0000532 0.373442216,23.7225437 0.75,23.7225437 C1.12969577,23.7225437 1.44349096,24.0046976 1.49315338,24.3707732 L1.5,24.4725437 L1.499,27.433 L8.569,20.174 L1.69683498,13.3011454 C1.43056842,13.0348788 1.40636237,12.6182151 1.62421683,12.3246036 L1.69683498,12.2404852 L13.7176503,0.219669914 Z M14.3527697,23.728356 L25.2081355,12.7708153 L14.2479803,1.81066017 L3.28782524,12.7708153 L9.616,19.099 L14.3527697,23.728356 Z" fill="false"/><path d="M15.2319803,14.0468153 L15.2319803,13.2668153 C16.0033137,12.8508153 16.5579803,12.4218153 16.8959803,11.9798153 C17.2339803,11.5378153 17.4029803,11.0178153 17.4029803,10.4198153 C17.4029803,9.65714861 17.151647,9.06131528 16.6489803,8.63231528 C16.1463137,8.20331528 15.448647,7.98881528 14.5559803,7.98881528 C13.6979803,7.98881528 12.874647,8.19248195 12.0859803,8.59981528 L12.0859803,8.59981528 L12.0859803,10.3288153 C12.8313137,9.98214861 13.4943137,9.80881528 14.0749803,9.80881528 C14.395647,9.80881528 14.6404803,9.87814861 14.8094803,10.0168153 C14.9784803,10.1554819 15.0629803,10.3591486 15.0629803,10.6278153 C15.0629803,10.9138153 14.9763137,11.1651486 14.8029803,11.3818153 C14.629647,11.5984819 14.343647,11.8151486 13.9449803,12.0318153 L13.9449803,12.0318153 L13.1909803,12.4348153 L13.3339803,14.0468153 L15.2319803,14.0468153 Z M14.3089803,17.4398153 C14.7249803,17.4398153 15.0608137,17.3141486 15.3164803,17.0628153 C15.572147,16.8114819 15.6999803,16.4821486 15.6999803,16.0748153 C15.6999803,15.6674819 15.572147,15.3381486 15.3164803,15.0868153 C15.0608137,14.8354819 14.7249803,14.7098153 14.3089803,14.7098153 C13.8929803,14.7098153 13.557147,14.8354819 13.3014803,15.0868153 C13.0458137,15.3381486 12.9179803,15.6674819 12.9179803,16.0748153 C12.9179803,16.4821486 13.0458137,16.8114819 13.3014803,17.0628153 C13.557147,17.3141486 13.8929803,17.4398153 14.3089803,17.4398153 Z" fill="false"/></g></g><g stroke="none" stroke-width="1" fill="none" fill-rule="evenodd" id="icon-flow-distributedmap"><use href="#icon-flow-map"/></g><g stroke="none" stroke-width="1" fill="none" fill-rule="evenodd" id="icon-flow-s3-object-keys"><g transform="translate(8.25, 8.250000)" fill="#D13212" fill-rule="nonzero"><g id="Group" fill="#0073BB" fill-rule="nonzero"><path d="M3.14022625,14.8427181 L3.04838959,14.837465 L2.97882707,14.825311 L2.89503206,14.8007955 L2.78861196,14.7524007 L2.71288627,14.7041811 L2.67470485,14.6746845 L2.58807542,14.5916924 C1.45196787,13.3309188 0.599887201,12.3853386 0.031833424,11.7549518 C0.000399364576,11.7200684 -0.00775491605,11.7065131 0.0073705821,11.7142857 L0.00737058211,9.42857143 L0.0759194765,9.3795093 L2.36184819,11.9165714 L2.36184819,6.57142857 C2.36184819,3.02653111 4.89117933,0.137214844 8.05635052,0.00474523823 L8.28348999,0 L23.7312512,0 C26.8827221,0 29.4658032,2.73461888 29.6431785,6.19200329 L29.651943,6.46433056 L29.7573706,14 C29.7573706,14.4733869 29.2839487,15 28.8573706,15 C28.4307924,15 28.0573706,14.4733869 28.0573706,14 C28.0906961,12.8768885 28.1073569,11.8916977 28.107353,11.0444277 C28.1073484,10.0297432 28.1073413,8.50771651 28.107332,6.47834758 C28.0640748,3.91551155 26.2334867,1.52323407 23.9469128,1.4 L23.7312512,1.4 L8.28348999,1.4 C5.93731018,1.4 4.02229021,3.76286516 3.91167154,6.33609562 L3.90662431,6.57142857 L3.90662431,11.9154286 L6.19255303,9.3795093 L6.22729127,11.7653253 L3.68039709,14.5916924 C3.64164613,14.6346955 3.59980204,14.672174 3.55565958,14.704128 L3.47964287,14.7525215 L3.40020114,14.7905433 L3.33159177,14.8144357 L3.25549148,14.8321773 L3.14022625,14.8427181 Z" id="Path" fill="false"/><path d="M28.8745149,20 L28.9950261,20.0082188 L29.0452212,20.0171414 L29.1133687,20.0347123 L29.1739194,20.0559896 L29.246295,20.0891896 L29.3400363,20.1470293 L29.4266657,20.2196475 L32.0472152,22.764239 L32.0254511,24.8529258 L31.9388217,24.7803077 L29.652893,22.561 L29.652893,27.2884619 C29.652893,30.3902472 27.1235618,32.9183989 23.9583906,33.0343098 L23.7312512,33.0384619 L8.28348999,33.0384619 C5.16680053,33.0384619 2.60090604,30.6964864 2.37760755,27.7109484 L2.36493266,27.4610815 L2.45737058,21 C2.45737058,20.5857864 2.83079244,20 3.25737058,20 C3.64840055,20 3.9562257,20.6339244 4.00737058,21 L3.90662431,25.2884619 L3.90917429,27.4351614 C3.9863164,29.6504278 5.8069073,31.5943145 8.07006233,31.7 L8.28348999,31.7 L23.7312512,31.7 C26.077431,31.7 27.992451,29.7459549 28.1030696,27.4943783 L28.1081169,27.2884619 L28.1081169,22.56 L25.7573706,24.7884619 L25.7573706,22.7884619 L28.3343441,20.2196475 L28.4139509,20.1521494 L28.5147252,20.0891877 L28.5869872,20.0560307 L28.6670145,20.0290532 L28.715765,20.0171381 L28.7844515,20.0057649 L28.8745149,20 Z" id="Path" fill="false"/></g><g id="Icon-Resource/Storage/Res_Amazon-Simple-Storage-Service_Bucket-With-Objects_48" transform="translate(7.757371, 8.000000)" fill="#1563A0"><path d="M15.16679,9.86923404 L15.2569283,9.19361896 C15.9715383,9.63336357 16.1952599,9.8889241 16.2610365,9.99762962 C16.0702032,10.055059 15.6852883,10.0029623 15.16679,9.86923404 L15.16679,9.86923404 Z M8.04626753,7.36244303 C8.05235796,7.36244303 8.05601222,7.36613491 8.06129059,7.36859617 L8.03327462,7.42602552 C8.02028171,7.42233364 8.00972496,7.41494986 8.00972496,7.3993619 C8.00972496,7.37926162 8.02596611,7.36244303 8.04626753,7.36244303 Z M13.5790523,15.7509263 C13.5766481,15.7689889 13.575446,15.78665 13.575446,15.8047125 C13.575446,15.8657237 13.4243823,16.100135 12.752409,16.366256 C12.4526856,16.4846658 12.0988679,16.5914354 11.7001717,16.6829521 C10.6719765,16.9213773 9.40977262,17.0526316 8.14676737,17.0526316 C4.76967085,17.0526316 2.71929083,16.1860323 2.71929083,15.8047125 C2.71929083,15.78665 2.71808873,15.7689889 2.71568453,15.7509263 L1.18421053,4.35789474 C1.28238194,4.4152934 1.38856734,4.47028372 1.49916044,4.52366848 C1.52680871,4.53731572 1.55766259,4.55016017 1.58651296,4.56340602 C1.68588647,4.60916439 1.78926697,4.65371859 1.89665448,4.69666724 C1.93993004,4.71392697 1.9836063,4.73078532 2.02768326,4.74764367 C2.14027985,4.79019093 2.25648275,4.83073124 2.37669264,4.87006738 C2.40874861,4.8805035 2.43960248,4.8917424 2.47245985,4.90217852 C2.62552711,4.95034522 2.78380347,4.9961036 2.94728892,5.03985502 C2.98856098,5.05069253 3.03143584,5.06072726 3.07391,5.07156477 C3.20213388,5.10447868 3.33356336,5.13578704 3.46779774,5.16548985 C3.52109079,5.17753152 3.57398315,5.18917181 3.6280776,5.2008121 C3.77713786,5.23212046 3.92860232,5.26182326 4.08247098,5.29032189 C4.11332485,5.29553995 4.14257593,5.30196218 4.1734298,5.30718024 C4.35775163,5.33969277 4.54608046,5.36939557 4.73681348,5.39709143 C4.78810304,5.40471782 4.84019399,5.41114005 4.89188424,5.41836505 C5.03854031,5.43843452 5.18599777,5.45729981 5.33545874,5.47455955 C5.39436158,5.48138316 5.45286373,5.48820678 5.51176658,5.49462901 C5.69007791,5.51389569 5.86959135,5.53115543 6.05070758,5.54640822 C6.07194467,5.54841516 6.09278105,5.55042211 6.11401813,5.55242905 C6.31516934,5.56888601 6.51792336,5.58213186 6.72147877,5.59337075 C6.77837812,5.59658187 6.83487677,5.59939159 6.89217682,5.60220132 C7.04604548,5.60982771 7.19991414,5.61624994 7.3537828,5.62106661 C7.41428844,5.62307356 7.47399269,5.6250805 7.53449833,5.62628467 C7.73885514,5.63110134 7.94321196,5.63471384 8.14676737,5.63471384 C8.35032279,5.63471384 8.5542789,5.63110134 8.75903641,5.62628467 C8.81954206,5.6250805 8.8792463,5.62307356 8.93935125,5.62106661 C9.09362061,5.61624994 9.24788997,5.60982771 9.40175863,5.60220132 C9.45865797,5.59939159 9.51515662,5.59658187 9.57205597,5.59337075 C9.77561138,5.58213186 9.9787661,5.56888601 10.180318,5.55242905 C10.2007537,5.55042211 10.220388,5.54841516 10.240423,5.5468096 C10.4227413,5.53155681 10.6034568,5.51389569 10.7825696,5.49422762 C10.8414724,5.48820678 10.8991732,5.48138316 10.9572746,5.47496093 C11.1079377,5.45729981 11.2569979,5.43843452 11.4044554,5.41796367 C11.4549436,5.41073866 11.5058324,5.40471782 11.5563206,5.39709143 C11.747855,5.36939557 11.9369852,5.33969277 12.1221084,5.30718024 C12.1505581,5.30196218 12.1782064,5.29594134 12.2070568,5.29112467 C12.3633296,5.26222465 12.5167976,5.23212046 12.6678613,5.20041071 C12.7207537,5.18917181 12.7728446,5.17753152 12.8249356,5.16589124 C12.9607728,5.13578704 13.0938051,5.1040773 13.2236317,5.07076199 C13.2641024,5.06032587 13.3057752,5.05069253 13.3462458,5.03985502 C13.510132,4.9961036 13.6696104,4.95034522 13.8230784,4.90177713 C13.854333,4.8917424 13.883584,4.88130628 13.9144379,4.87127155 C14.0362506,4.83113263 14.154457,4.79019093 14.2682557,4.74684089 C14.3115312,4.73078532 14.3540054,4.71392697 14.3960789,4.69747002 C14.5050692,4.65411998 14.6100525,4.608763 14.7102274,4.56220185 C14.7378757,4.54935739 14.7675274,4.53731572 14.794775,4.52406987 C14.9057688,4.47068511 15.0119542,4.4152934 15.1105263,4.35789474 L14.3964796,9.67108383 C12.9455462,9.20466956 10.9083893,8.35894248 8.98062331,7.44056394 C8.95778343,6.99783163 8.59474956,6.64380634 8.14716807,6.64380634 C7.68556209,6.64380634 7.30970584,7.01990804 7.30970584,7.48270981 C7.30970584,7.94591297 7.68556209,8.32201467 8.14716807,8.32201467 C8.32828431,8.32201467 8.49537605,8.26301045 8.63241533,8.16467009 C10.3606329,8.994743 12.5660836,9.97453408 14.2882907,10.4726581 L13.5790523,15.7509263 Z M8.05223274,1.13684211 C12.1889596,1.13684211 15.103653,2.26577106 15.1578947,2.89244614 L15.147525,2.9652009 C15.1399471,2.98664071 15.1243925,3.00913493 15.1112309,3.03127769 C15.1004624,3.04920277 15.0928845,3.06712786 15.0785264,3.08505294 C15.0605788,3.10754717 15.0346544,3.1300414 15.0107243,3.15288709 C14.9907825,3.17116365 14.974829,3.18979168 14.9516965,3.20841971 C14.9229803,3.23126541 14.8870851,3.25411111 14.853184,3.27695681 C14.8244678,3.29628778 14.79974,3.31526729 14.7678331,3.33424679 C14.7295449,3.35709249 14.6840776,3.37993819 14.6402056,3.40278388 C14.6035127,3.42211486 14.5696117,3.44179731 14.5285315,3.46112828 C14.4818677,3.48327104 14.427626,3.50576526 14.3757774,3.52755654 C14.3295124,3.54759046 14.2868369,3.56727291 14.2365836,3.58695536 C14.1811454,3.60874664 14.1185281,3.62983498 14.0583039,3.65162626 C14.0040622,3.67095723 13.9522135,3.69099115 13.8935846,3.71032213 C13.8293721,3.73141046 13.7583792,3.75214733 13.6897795,3.77253272 C13.6267634,3.79151222 13.5673368,3.81119467 13.50113,3.8298227 C13.4293396,3.84950515 13.3507689,3.86883612 13.27499,3.88851857 C13.2035984,3.90644366 13.1357963,3.92542316 13.0612139,3.94299678 C12.9822444,3.96197628 12.8968935,3.97919842 12.8143345,3.99712351 C12.7349661,4.01469712 12.6583896,4.03297368 12.5750329,4.04949288 C12.4892831,4.06636355 12.3963543,4.08253127 12.3070151,4.09869899 C12.2200688,4.11486672 12.1363133,4.13138592 12.0461763,4.14649922 C11.949658,4.16266695 11.8471572,4.17707731 11.7470494,4.19219062 C11.6561147,4.20589804 11.5683708,4.22065988 11.4750432,4.23331288 C11.3689528,4.24772324 11.2568799,4.26002477 11.1472,4.27338072 C11.0522771,4.28462783 10.9605448,4.2976323 10.8632288,4.307825 C10.7491617,4.32012653 10.6287132,4.32996775 10.5106578,4.34121487 C10.4113476,4.35035315 10.3152281,4.36054584 10.2131261,4.36898118 C10.0839033,4.37917387 9.94829904,4.38655479 9.81508782,4.3953416 C9.71896834,4.40131663 9.62564072,4.40904902 9.52712823,4.4143211 C9.37557056,4.42240496 9.21803034,4.42732557 9.0612878,4.43259766 C8.97553806,4.43576091 8.89297901,4.44068152 8.80603276,4.44279036 C8.55995096,4.44911686 8.30828545,4.45263158 8.05223274,4.45263158 C7.79538237,4.45263158 7.54411569,4.44911686 7.29843272,4.44279036 C7.21427833,4.44068152 7.13411229,4.43576091 7.05115441,4.43294913 C6.89201885,4.42767705 6.73128794,4.42240496 6.57733725,4.4143211 C6.48321196,4.40940049 6.39506921,4.40201957 6.30333693,4.39639601 C6.16494084,4.38725774 6.02494941,4.37952535 5.89094051,4.36898118 C5.79482104,4.36089731 5.70388644,4.35140756 5.61015998,4.34262076 C5.48652082,4.33102217 5.36048865,4.32082947 5.24083785,4.307825 C5.14950441,4.29833525 5.06375467,4.28603372 4.97441541,4.27548955 C4.85835414,4.26143066 4.74029868,4.24842619 4.62902344,4.23331288 C4.54127952,4.22136282 4.45951815,4.2076554 4.37456608,4.1950024 C4.26887454,4.17883467 4.15999232,4.16372137 4.05789031,4.14649922 C3.9725394,4.13208886 3.89356988,4.11627261 3.81140966,4.10151077 C3.71688553,4.08393716 3.61956955,4.06741796 3.52903378,4.04949288 C3.45046309,4.03367662 3.37787494,4.01645448 3.30249494,3.99993528 C3.21514986,3.98095578 3.12541176,3.96232775 3.04285271,3.94299678 C2.97225874,3.92612611 2.90764731,3.90784955 2.83984519,3.89062741 C2.76007799,3.87024201 2.67791778,3.85020809 2.60333545,3.82947123 C2.53952169,3.81154614 2.48208931,3.79291811 2.42186508,3.77464155 C2.35087227,3.75320175 2.27708761,3.73176194 2.21088084,3.71032213 C2.15464496,3.69134262 2.1051893,3.67236312 2.05214411,3.65373509 C1.99032453,3.63124086 1.92531427,3.60944958 1.86828072,3.58660389 C1.81962273,3.56762438 1.77774495,3.54829341 1.73267648,3.52896243 C1.6796313,3.50646821 1.6241931,3.48362251 1.57673161,3.46112828 C1.53605034,3.44179731 1.50294695,3.42246633 1.46625404,3.40348683 C1.42238208,3.38028966 1.37611711,3.35744396 1.33743002,3.33424679 C1.30592198,3.31526729 1.28079531,3.29628778 1.25287679,3.27730828 C1.21897573,3.25446258 1.18228282,3.23126541 1.15396546,3.20841971 C1.13043414,3.18979168 1.11408186,3.17116365 1.09493774,3.15288709 C1.07100758,3.1300414 1.04508324,3.10754717 1.02713562,3.08505294 C1.01237869,3.06712786 1.0048008,3.04920277 0.994431068,3.03127769 C0.980870644,3.00913493 0.964917205,2.98664071 0.958136993,2.9652009 L0.947368421,2.89244614 C1.00200895,2.26577106 3.91630353,1.13684211 8.05223274,1.13684211 L8.05223274,1.13684211 Z M15.3742706,8.3120784 L16.0685794,3.10405652 L16.0685794,3.10241568 L16.0888808,2.94325433 C16.091317,2.92561531 16.0925351,2.90756609 16.0925351,2.88992707 C16.0925351,1.18714676 11.851973,0 8.0458615,0 C4.24056205,0 0,1.18714676 0,2.88992707 C0,2.90756609 0.00121808561,2.92561531 0.00365425684,2.94325433 L0.0243617123,3.10241568 L0.0243617123,3.10282589 L1.73455391,15.935825 C1.78814968,17.4388332 5.62268319,18 8.0458615,18 C9.38534965,18 10.7288981,17.8588879 11.8292354,17.6016864 C12.2722126,17.4987238 12.6697145,17.3773017 13.0111845,17.2411121 C13.8878001,16.8907931 14.3405219,16.4518687 14.3583872,15.935825 L15.0616286,10.6568368 C15.4457316,10.7388788 15.7953222,10.7889243 16.0860386,10.7889243 C16.4778561,10.7889243 16.7714148,10.7052416 16.9301719,10.5136737 C17.0714699,10.3434366 17.1275018,10.128897 17.087305,9.90984503 C17.0012269,9.44015497 16.4656753,8.94257065 15.3742706,8.3120784 Z M3.9197995,10.0214221 L4.97384959,8.24644485 L6.02789967,10.0214221 L3.9197995,10.0214221 Z M7.09859693,10.6334549 C7.17087,10.5050593 7.16883986,10.3471285 7.09331855,10.2203737 L5.32181604,7.2381495 C5.17523974,6.99120328 4.7720534,6.99120328 4.6254771,7.2381495 L2.85438062,10.2203737 C2.77885931,10.3475387 2.77682917,10.5050593 2.84910225,10.6338651 C2.92137533,10.7626709 3.0561768,10.8418414 3.20234708,10.8418414 L6.7453521,10.8418414 C6.89152237,10.8418414 7.02632385,10.7626709 7.09859693,10.6334549 L7.09859693,10.6334549 Z M10.8190364,11.1995442 C11.4739604,11.1995442 12.0070759,11.7422516 12.0070759,12.4096627 C12.0070759,13.0766636 11.4739604,13.6197812 10.8190364,13.6197812 C10.1641124,13.6197812 9.63099691,13.0766636 9.63099691,12.4096627 C9.63099691,11.7422516 10.1641124,11.1995442 10.8190364,11.1995442 L10.8190364,11.1995442 Z M10.8190364,14.4402005 C11.9218099,14.4402005 12.819133,13.5295351 12.819133,12.4096627 C12.819133,11.2902005 11.9218099,10.3791249 10.8190364,10.3791249 C9.71626291,10.3791249 8.81893984,11.2902005 8.81893984,12.4096627 C8.81893984,13.5295351 9.71626291,14.4402005 10.8190364,14.4402005 L10.8190364,14.4402005 Z M7.1038753,12.1688696 C7.32800305,12.1688696 7.50990383,12.3526436 7.50990383,12.5790793 L7.50990383,12.5790793 L7.50990383,15.4423428 C7.50990383,15.6691887 7.32800305,15.8525524 7.1038753,15.8525524 L7.1038753,15.8525524 L4.30309044,15.8525524 C4.07855666,15.8525524 3.89706191,15.6691887 3.89706191,15.4423428 L3.89706191,15.4423428 L3.89706191,12.5790793 C3.89706191,12.3526436 4.07855666,12.1688696 4.30309044,12.1688696 L4.30309044,12.1688696 Z M6.69784676,12.9896992 L4.70952501,12.9896992 L4.70952501,15.0321331 L6.69784676,15.0321331 L6.69784676,12.9896992 Z" id="AWS-Amazon-Simple-Storage_Bucket-with-objects_Resource-Icon_light-bg" fill="false"/></g></g></g><g stroke="none" stroke-width="1" fill="none" fill-rule="evenodd" id="icon-service-lam"><polygon fill="url(#gradient-orange)" fill-rule="nonzero" points="0 0 48 0 48 48 0 48"/><g transform="translate(11, 10)" fill="#FFFFFF"><path d="M26.5889213,27.8937088 L19.6925948,27.8937088 C19.4772752,27.8931074 19.2813916,27.7706914 19.1888047,27.578869 L9.43766764,7.45673404 L5.31218659,7.45673404 C5.00303594,7.45673404 4.75241983,7.20943823 4.75241983,6.90438337 L4.75241983,0.828526005 C4.75241983,0.523471153 5.00303594,0.276175335 5.31218659,0.276175335 L13.9325948,0.276175335 C14.1479143,0.276776788 14.3437979,0.399192787 14.4363848,0.591015217 L24.1427405,20.7131501 L26.5889213,20.7131501 C26.8980719,20.7131501 27.148688,20.9604459 27.148688,21.2655008 L27.148688,27.3413582 C27.148688,27.646413 26.8980719,27.8937088 26.5889213,27.8937088 Z M20.0452478,26.7890075 L26.0291545,26.7890075 L26.0291545,21.8178515 L23.7900875,21.8178515 C23.5747679,21.81725 23.3788843,21.694834 23.2862974,21.5030116 L13.5799417,1.38087667 L5.87755102,1.38087667 L5.87755102,6.3520327 L9.79591837,6.3520327 C10.0112379,6.35263416 10.2071215,6.47505016 10.2997085,6.66687259 L20.0452478,26.7890075 Z"/><path d="M8.10542274,27.8937099 L0.82845481,27.8937099 C0.635054571,27.8940907 0.455155006,27.7959347 0.352653061,27.634104 C0.243858391,27.4681848 0.233185428,27.2575536 0.324664723,27.0817533 L7.93749271,11.3894708 C8.03007964,11.1976484 8.22596323,11.0752324 8.4412828,11.0746298 L8.4412828,11.0746298 C8.65533487,11.0742082 8.85089022,11.1942751 8.94507289,11.3839473 L12.5891545,18.7799228 C12.6634688,18.931712 12.6634688,19.1086786 12.5891545,19.2604679 L8.6148105,27.5457279 C8.53147526,27.7523199 8.33072312,27.8894609 8.10542274,27.8937099 L8.10542274,27.8937099 Z M1.72408163,26.7890075 L7.75276968,26.7890075 L11.4640233,19.0560981 L8.44688047,12.8973881 L1.72408163,26.7890075 Z"/></g></g><g stroke="none" stroke-width="1" fill="none" fill-rule="evenodd" id="icon-service-s3"><polygon fill="url(#gradient-green)" fill-rule="nonzero" points="0 0 48 0 48 48 0 48"/><g transform="translate(8 8) scale(0.033229491173416406)"><path d="M854.6 580.4L862 532.2C925.1 569.8 926.3 585.7 926.2 586.3 926 586.4 914.7 595.2 854.6 580.4L854.6 580.4ZM477.4 442.1C477.4 462.4 460.9 479 440.6 479 420.4 479 403.9 462.4 403.9 442.1 403.9 421.8 420.4 405.3 440.6 405.3 460.9 405.3 477.4 421.8 477.4 442.1L477.4 442.1ZM768.8 898.8C768.8 903.4 750.5 910.3 734.4 916.5L717.9 922.8C700.3 929.8 679.5 936.1 656.1 941.5 597.7 955 517.2 963.2 440.6 963.2 236.8 963.2 128.2 925.8 128.1 896.5L46.5 243.4C116.8 297.2 261.3 331.6 440.6 331.6 612.1 331.6 787.5 298.4 869.7 240L819.1 570.4C712.7 538 582.3 475.6 517.9 444.6L514 442.7C514 442.5 514.1 442.3 514.1 442.1 514.1 401.5 481.1 368.4 440.6 368.4 400.1 368.4 367.2 401.5 367.2 442.1 367.2 482.8 400.1 515.8 440.6 515.8 467.8 515.8 491.2 500.8 504 478.7 570.9 510.9 704.4 574.7 813.5 607.2L768.8 898.8ZM440.6 36.8C687.9 36.8 879.8 105.7 881.2 165.2L880.3 170.7C870.3 229.1 682.1 294.8 440.6 294.8 204.1 294.8 44 230.9 37.3 169.7L36.8 165.3C37.6 103.2 199.6 36.8 440.6 36.8L440.6 36.8ZM868 493.1L917.8 168.6C917.8 167.7 918 166.8 918 165.8 918 62 675.3 0 440.6 0 185.3 0 0 69.7 0 165.8 0 166.6 0.1 167.3 0.1 168.1L91.5 898.8C91.5 995.1 382.3 1000 440.6 1000 519.8 1000 603.4 991.6 664.3 977.4 689.5 971.6 712.1 964.8 731.4 957.1L747.4 950.9C778.6 939 805.5 928.8 805.3 901.6L849 617C873.3 622.9 893.3 625.9 909.3 625.9 930.8 625.9 945.4 620.6 954.2 610.1 961.6 601.2 964.4 590.6 962.3 579.3 957.6 554 928.1 527.2 868 493.1L868 493.1Z" fill="#FFFFFF"/></g></g></defs></g></svg>